<?xml version="1.0" encoding="utf-8"?>
<!-- Generator: Adobe Illustrator 21.0.0, SVG Export Plug-In . SVG Version: 6.00 Build 0)  -->
<svg version="1.1" id="Layer_1" xmlns="http://www.w3.org/2000/svg" xmlns:xlink="http://www.w3.org/1999/xlink" x="0px" y="0px"
	 viewBox="0 0 50 50" style="enable-background:new 0 0 50 50;" xml:space="preserve">
<path d="M36.6,4c5.2,0,9.4,4.2,9.4,9.4v23.3c0,5.2-4.2,9.4-9.4,9.4H13.4C8.2,46,4,41.8,4,36.6V13.4C4,8.2,8.2,4,13.4,4H36.6 M36.6,0
	H13.4C6,0,0,6,0,13.4v23.3C0,44,6,50,13.4,50h23.3C44,50,50,44,50,36.6V13.4C50,6,44,0,36.6,0L36.6,0z"/>
<path d="M25,16.3c4.8,0,8.7,3.9,8.7,8.8c0,4.8-3.9,8.7-8.8,8.7c-4.8,0-8.7-3.9-8.7-8.8C16.3,20.2,20.2,16.3,25,16.3 M25,12.3
	L25,12.3c-7,0-12.8,5.7-12.8,12.7v0c0,7,5.7,12.7,12.7,12.7h0c7,0,12.7-5.7,12.7-12.7v0C37.8,18,32,12.3,25,12.3L25,12.3z"/>
<path d="M38.5,14.2L38.5,14.2c-1.5,0-2.7-1.2-2.7-2.7v0c0-1.5,1.2-2.7,2.7-2.7h0c1.5,0,2.7,1.2,2.7,2.7v0C41.2,13,40,14.2,38.5,14.2
	z"/>
</svg>
