<?xml version="1.0" encoding="utf-8"?>
<!-- Generator: Adobe Illustrator 21.0.0, SVG Export Plug-In . SVG Version: 6.00 Build 0)  -->
<svg version="1.1" id="Layer_1" xmlns="http://www.w3.org/2000/svg" xmlns:xlink="http://www.w3.org/1999/xlink" x="0px" y="0px"
	 viewBox="0 0 377.8 207.8" style="enable-background:new 0 0 377.8 207.8;" xml:space="preserve">
<g>
	<path d="M124.4,35.1l28.7,28.7c-1.8,6.5-2,11.7-2,11.7v56.7c0,1.9-0.3,19.1-9.1,36.8c-12.5,25-36.1,38.8-66.5,38.8
		S21.6,194,9.1,169C0.3,151.4,0,134.2,0,132.3V18.9C0,8.5,8.5,0,18.9,0c10.4,0,18.9,8.5,18.9,18.9v113.3c0,0,0.1,2.7,0.8,6.6
		c0.7,3.9,2.1,9.1,4.8,14.1c6.2,11.6,16.4,17,32.2,17c16.2,0,26.6-5.7,32.7-17.9c4.8-9.6,5.1-19.8,5.1-19.9V75.6
		c0-1.9,0.3-19.1,9.1-36.8C123.1,37.5,123.7,36.3,124.4,35.1z"/>
	<path d="M377.8,75.6v113.4c0,10.4-8.5,18.9-18.9,18.9c-10.4,0-18.9-8.5-18.9-18.9V75.6c0,0-0.1-2.7-0.8-6.6
		c-0.7-3.9-2.1-9.1-4.8-14.1c-6.2-11.6-16.4-17-32.2-17c-16.2,0-26.6,5.7-32.7,17.9c-4.8,9.6-5.1,19.8-5.1,19.9v113.4
		c0,10.4-8.5,18.9-18.9,18.9c-10.4,0-18.9-8.5-18.9-18.9V75.6c0,0-0.1-2.7-0.8-6.6s-2.1-9.1-4.8-14.1c-6.2-11.6-16.4-17-32.2-17
		c-2.8,0-5.4,0.2-7.9,0.5L151.4,8.7C162.1,3,174.8,0,188.9,0c23.7,0,43.3,8.4,56.7,24c13.4-15.6,33-24,56.7-24
		c30.4,0,54,13.8,66.5,38.8C377.6,56.4,377.8,73.7,377.8,75.6z"/>
</g>
</svg>
