<?xml version="1.0" encoding="utf-8"?>
<!-- Generator: Adobe Illustrator 21.0.0, SVG Export Plug-In . SVG Version: 6.00 Build 0)  -->
<svg version="1.1" id="Layer_1" xmlns="http://www.w3.org/2000/svg" xmlns:xlink="http://www.w3.org/1999/xlink" x="0px" y="0px"
	 viewBox="0 0 50 50" style="enable-background:new 0 0 50 50;" xml:space="preserve">
<path d="M25,0C18.4,0,12.3,2.6,7.8,6.8C3,11.4,0,17.8,0,25c0,3.9,0.9,7.7,2.5,11L0,50l14.4-2.4C17.6,49.1,21.2,50,25,50
	c6.7,0,12.9-2.7,17.4-7c4.7-4.5,7.6-10.9,7.6-18C50,11.2,38.8,0,25,0z M39.6,40.1c-2,2-4.4,3.5-7.1,4.5C30.1,45.5,27.6,46,25,46
	c-0.3,0-0.5,0-0.7,0c-3.3-0.1-6.5-1-9.3-2.5l-5.8,1L5,45.1l0.8-4.2l1-5.6c-1.4-2.4-2.3-5.2-2.6-8.1C4,26.5,4,25.8,4,25
	c0-3.4,0.8-6.6,2.2-9.4c1.1-2.2,2.6-4.2,4.4-5.8C14.4,6.2,19.4,4,25,4c11.6,0,21,9.4,21,21C46,30.9,43.5,36.3,39.6,40.1z"/>
<path d="M37,30.3c-0.7-0.3-3.9-1.9-4.5-2.1c-0.6-0.2-1-0.3-1.5,0.3c-0.4,0.7-1.7,2.1-2.1,2.6c-0.4,0.4-0.8,0.5-1.4,0.2
	c-0.7-0.3-2.8-1-5.3-3.3c-2-1.7-3.3-3.9-3.7-4.5c-0.4-0.7,0-1,0.3-1.3c0.3-0.3,0.7-0.8,1-1.1c0.3-0.4,0.4-0.7,0.7-1.1
	c0.2-0.4,0.1-0.8-0.1-1.1c-0.2-0.3-1.4-3.6-2-4.9c-0.5-1.1-1-1.1-1.5-1.1c-0.4,0-0.8,0-1.3,0c-0.4,0-1.1,0.2-1.7,0.8
	c-0.6,0.7-2.3,2.2-2.3,5.5c0,3.2,2.4,6.3,2.7,6.8c0.3,0.4,4.5,7.3,11.2,9.9c5.5,2.2,6.7,1.8,7.9,1.6s3.9-1.6,4.4-3.1
	c0.5-1.5,0.5-2.8,0.4-3.1C38.1,30.7,37.6,30.6,37,30.3z"/>
</svg>
